<?xml version="1.0" encoding="UTF-8"?>
<svg version="1.1" xmlns="http://www.w3.org/2000/svg" width="248" height="202">
<path d="M0 0 C11.88 0 23.76 0 36 0 C37.23283771 3.69851313 37.13161347 7.10931103 37.11352539 10.9597168 C37.11367142 11.76970123 37.11381744 12.57968567 37.1139679 13.41421509 C37.113271 16.09257685 37.10548903 18.77086913 37.09765625 21.44921875 C37.09579128 23.30581118 37.09436775 25.1624041 37.09336853 27.01899719 C37.0895496 31.90655881 37.07972461 36.79409074 37.06866455 41.68164062 C37.05843704 46.66861571 37.05386803 51.65559558 37.04882812 56.64257812 C37.03810181 66.42839847 37.02103284 76.21419676 37 86 C40.64415723 83.85633343 43.8733763 81.58306869 47.125 78.875 C52.95392315 74.03707181 52.95392315 74.03707181 55.73828125 71.796875 C62.76157781 66.14571308 69.41554136 60.14937052 76 54 C77.32156989 52.77208731 78.6431868 51.54422524 79.96484375 50.31640625 C85.89533637 44.79339474 91.79988838 39.26149743 97.5 33.5 C107.56287454 23.37048391 118.9144314 14.49453851 131.38650513 7.47766113 C133.11226071 6.50192478 134.81824931 5.49026535 136.50094604 4.4420166 C145.32305364 -0.62808103 153.22778825 -0.82115113 163.0703125 -0.65625 C164.68504122 -0.65012014 166.29978059 -0.64637907 167.91452026 -0.64489746 C171.27156064 -0.63576221 174.6276223 -0.60717031 177.984375 -0.5625 C182.29086542 -0.50548077 186.59659678 -0.48402407 190.90342903 -0.4751358 C194.2251036 -0.46684197 197.54662479 -0.44722687 200.86822128 -0.42338562 C202.45747534 -0.41198917 204.04674399 -0.4024688 205.63602066 -0.39485168 C207.84501673 -0.38115172 210.05340444 -0.35391372 212.26220703 -0.32226562 C213.51840851 -0.30860962 214.77460999 -0.29495361 216.06887817 -0.28088379 C219 -0 219 -0 221 2 C221.40028418 6.54260278 221.3290065 11.0996664 221.31567383 15.65795898 C221.31251677 17.92545747 221.3359576 20.1916476 221.36132812 22.45898438 C221.36360141 23.89843585 221.36430448 25.33789084 221.36328125 26.77734375 C221.36626221 28.08952881 221.36924316 29.40171387 221.37231445 30.75366211 C221 34 221 34 219.81640625 35.91015625 C217.34103667 37.395378 215.45928734 37.50254972 212.57421875 37.66015625 C210.83084229 37.75707764 210.83084229 37.75707764 209.05224609 37.85595703 C200.08268764 38.20448237 191.10504706 38.34529102 182.13012695 38.47680664 C162.81216439 38.59635243 162.81216439 38.59635243 145.75 46.875 C144.52446411 47.73859131 144.52446411 47.73859131 143.27416992 48.61962891 C136.39213042 53.54411948 129.91845724 58.87597297 123.63427734 64.53710938 C121.81338203 66.16704734 119.96770587 67.76645948 118.12109375 69.3671875 C113.89719866 73.05787185 109.81814798 76.889281 105.75 80.75 C104.25437034 82.16195009 102.7582744 83.57340642 101.26171875 84.984375 C100.17383057 86.01014648 100.17383057 86.01014648 99.06396484 87.05664062 C92.09798766 93.61556875 85.10048896 100.00937744 77.55859375 105.91015625 C74.6209248 108.30962631 71.83740954 110.8543922 69.0625 113.4375 C63.57281426 118.54578589 57.85073466 123.30801474 52 128 C48.11700689 131.14259188 44.48855127 134.41716356 41 138 C40.20119164 138.64885666 40.20119164 138.64885666 39.38624573 139.31082153 C37.44388767 141.67763814 37.57887293 143.36335301 37.50756836 146.40185547 C37.47420883 147.50665253 37.4408493 148.61144958 37.40647888 149.74972534 C37.38448929 150.94348785 37.36249969 152.13725037 37.33984375 153.3671875 C37.30443985 154.59406281 37.26903595 155.82093811 37.2325592 157.08499146 C37.12050966 161.01476569 37.0275132 164.94466366 36.9375 168.875 C36.84212543 172.79809003 36.74248995 176.72089824 36.63172913 180.64358521 C36.56325224 183.08627131 36.50388839 185.5292335 36.45457458 187.97238159 C36.42436722 189.08348297 36.39415985 190.19458435 36.36303711 191.33935547 C36.34099716 192.31403778 36.31895721 193.28872009 36.29624939 194.29293823 C36 197 36 197 34 202 C22.78 202 11.56 202 0 202 C0 135.34 0 68.68 0 0 Z " fill="#F2F2F2" transform="translate(0,0)"/>
<path d="M0 0 C-0.08121094 1.18851562 -0.16242188 2.37703125 -0.24609375 3.6015625 C-1.02247485 20.36386994 2.45391017 38.43303533 13 52 C13.55558594 52.72058594 14.11117187 53.44117188 14.68359375 54.18359375 C17.48783237 57.58740232 20.30680855 60.36425974 23.9375 62.875 C24.948125 63.57625 25.95875 64.2775 27 65 C27 65.66 27 66.32 27 67 C27.84691406 67.17402344 27.84691406 67.17402344 28.7109375 67.3515625 C32.05799205 68.29970423 34.92780032 69.99744669 37.9765625 71.6484375 C46.37372474 75.4022077 54.83741264 76.72024181 63.9375 77.625 C65.13793945 77.74979736 66.33837891 77.87459473 67.57519531 78.00317383 C80.37317611 79.25913613 93.14750681 79.65817837 106 80 C106 91.55 106 103.1 106 115 C100.70209151 115.0231687 95.40436442 115.04301657 90.10644531 115.05493164 C88.31054076 115.05990778 86.51464014 115.06669109 84.71875 115.07543945 C56.77978393 115.20796245 56.77978393 115.20796245 45.9375 112.5625 C41.48715589 111.51798097 37.16554874 110.75948204 32.625 110.25 C15.27231668 107.68942112 -3.57335204 96.12424346 -14.84375 82.82421875 C-16 81 -16 81 -16 79 C-16.66 79 -17.32 79 -18 79 C-28.56767574 66.31878912 -36.2760071 47.19429425 -37.4375 30.75 C-36.69754148 24.40749836 -31.23010544 21.22546644 -26.5 17.3125 C-25.5821875 16.54550781 -24.664375 15.77851562 -23.71875 14.98828125 C-21.17604125 13.12874281 -18.96766061 12.00534879 -16 11 C-16 10.34 -16 9.68 -16 9 C-13.953125 7.34375 -13.953125 7.34375 -11.25 5.5 C-10.36828125 4.8915625 -9.4865625 4.283125 -8.578125 3.65625 C-2.88679245 0 -2.88679245 0 0 0 Z " fill="#F0A503" transform="translate(113,87)"/>
<path d="M0 0 C5.66176471 2.98529412 5.66176471 2.98529412 7 7 C7.56978744 11.72923574 7.91674064 16.48661359 5.25 20.625 C2.51806842 23.38048271 -0.22106612 23.50599948 -4 23.6875 C-7.84227234 23.50791039 -10.41605656 23.34207084 -13.1875 20.5625 C-13.785625 19.716875 -14.38375 18.87125 -15 18 C-15.33 17.67 -15.66 17.34 -16 17 C-16.43838457 13.6181762 -16.47729001 10.37774469 -16 7 C-11.64769033 1.35376043 -7.13814347 -1.1178602 0 0 Z " fill="#EAA005" transform="translate(241,179)"/>
<path d="M0 0 C0.91394531 0.06058594 1.82789063 0.12117187 2.76953125 0.18359375 C16.50362111 1.05769321 30.2469295 1.51622365 44 2 C44 13.55 44 25.1 44 37 C42.68 37 41.36 37 40 37 C40.33 26.44 40.66 15.88 41 5 C32.01025331 5.07893077 32.01025331 5.07893077 23.02075195 5.18017578 C21.33405396 5.18766846 21.33405396 5.18766846 19.61328125 5.1953125 C17.89298706 5.21102295 17.89298706 5.21102295 16.13793945 5.22705078 C12.97996528 4.99855035 10.88246553 4.23434783 8 3 C5.6679198 2.92353835 3.33154122 2.90856701 1 3 C0.67 2.01 0.34 1.02 0 0 Z " fill="#D29F2F" transform="translate(175,165)"/>
<path d="M0 0 C0.680625 -0.01675781 1.36125 -0.03351563 2.0625 -0.05078125 C4 0.3125 4 0.3125 7 3.3125 C3.04 2.9825 -0.92 2.6525 -5 2.3125 C-5.33 3.3025 -5.66 4.2925 -6 5.3125 C-6.66 5.3125 -7.32 5.3125 -8 5.3125 C-8 8.9425 -8 12.5725 -8 16.3125 C-7.34 15.6525 -6.68 14.9925 -6 14.3125 C-5.01 14.3125 -4.02 14.3125 -3 14.3125 C-3 15.3025 -3 16.2925 -3 17.3125 C-1.68 17.3125 -0.36 17.3125 1 17.3125 C1 20.3125 1 20.3125 -0.6875 22.0625 C-3 23.3125 -3 23.3125 -5.5 23.3125 C-9.03219771 21.89962091 -10.15318798 20.66412182 -12 17.3125 C-12.61215976 13.86059915 -12.66881322 10.75858848 -12 7.3125 C-8.81188136 3.1765623 -5.3828287 0.03058425 0 0 Z " fill="#E9A00A" transform="translate(237,178.6875)"/>
<path d="M0 0 C-0.06960937 1.23492187 -0.13921875 2.46984375 -0.2109375 3.7421875 C-0.60410646 14.07339492 0.1421675 22.58955627 3.95361328 32.26123047 C5.42524213 36.00208853 6.24890072 38.15429639 5 42 C5 41.34 5 40.68 5 40 C4.37609375 39.8246875 3.7521875 39.649375 3.109375 39.46875 C0.4062066 37.58654386 0.15976697 35.84557964 -0.41870117 32.69116211 C-0.58269409 31.60653687 -0.58269409 31.60653687 -0.75 30.5 C-0.87286377 29.75693604 -0.99572754 29.01387207 -1.12231445 28.24829102 C-2.38103187 19.84777763 -2.26743349 11.46872713 -2 3 C-2.99 3 -3.98 3 -5 3 C-5 3.66 -5 4.32 -5 5 C-6.6796875 6.18359375 -6.6796875 6.18359375 -8.875 7.4375 C-11.91130355 9.17330794 -12.99102668 9.98654002 -15 13 C-17.375 14.0625 -17.375 14.0625 -20 15 C-21.34050052 15.65213539 -22.67661368 16.31379969 -24 17 C-20.55384615 12.2 -20.55384615 12.2 -17.75 11.1875 C-17.1725 11.125625 -16.595 11.06375 -16 11 C-16 10.34 -16 9.68 -16 9 C-13.953125 7.34375 -13.953125 7.34375 -11.25 5.5 C-10.36828125 4.8915625 -9.4865625 4.283125 -8.578125 3.65625 C-2.88679245 0 -2.88679245 0 0 0 Z " fill="#CF9C2B" transform="translate(113,87)"/>
<path d="M0 0 C0.66 0.33 1.32 0.66 2 1 C1.34 1.66 0.68 2.32 0 3 C-0.1546875 4.2375 -0.1546875 4.2375 -0.3125 5.5 C-0.539375 6.325 -0.76625 7.15 -1 8 C-3.88909849 9.59660706 -5.69058796 10 -9 10 C-8.67 14.29 -8.34 18.58 -8 23 C-7.34 23 -6.68 23 -6 23 C-6 26.3 -6 29.6 -6 33 C-5.01 33 -4.02 33 -3 33 C-1.00214565 37.1205746 -0.82164485 40.45194365 -1 45 C-4.38136198 43.30931901 -4.83899507 39.40888522 -6 36 C-6.4014624 34.83513062 -6.4014624 34.83513062 -6.81103516 33.64672852 C-9.43937716 25.89888279 -11.96386488 18.26169893 -11 10 C-8.875 7.3125 -8.875 7.3125 -6 5 C-4.89513511 4.06332297 -3.79095877 3.12583311 -2.6875 2.1875 C-1.800625 1.465625 -0.91375 0.74375 0 0 Z " fill="#CF9C25" transform="translate(87,104)"/>
<path d="M0 0 C0.61875 0.66 1.2375 1.32 1.875 2 C5.27889171 5.44335712 9.14641031 8.29718626 12.98828125 11.23046875 C13.65214844 11.81441406 14.31601563 12.39835938 15 13 C15 13.66 15 14.32 15 15 C15.57234375 15.12246094 16.1446875 15.24492187 16.734375 15.37109375 C19.09953191 16.02762868 21.07206797 16.93723512 23.25 18.0625 C23.95640625 18.42472656 24.6628125 18.78695312 25.390625 19.16015625 C25.92171875 19.43730469 26.4528125 19.71445313 27 20 C23.98968256 20.93423645 23.13349732 21.04449911 20 20 C19.67 20.66 19.34 21.32 19 22 C18.01 21.34 17.02 20.68 16 20 C16.33 19.34 16.66 18.68 17 18 C15.02 17.67 13.04 17.34 11 17 C10.67 16.01 10.34 15.02 10 14 C9.34 13.67 8.68 13.34 8 13 C8 12.34 8 11.68 8 11 C7.01 11 6.02 11 5 11 C4.54625 10.030625 4.0925 9.06125 3.625 8.0625 C2.34213779 4.92920418 2.34213779 4.92920418 0 4 C0 2.68 0 1.36 0 0 Z " fill="#DCA224" transform="translate(125,139)"/>
<path d="M0 0 C0.66 0.33 1.32 0.66 2 1 C2 2.32 2 3.64 2 5 C2.928125 4.79375 3.85625 4.5875 4.8125 4.375 C8 4 8 4 11 6 C10.979375 6.9075 10.95875 7.815 10.9375 8.75 C11.01789302 12.93043679 12.51582323 14.71211897 15 18 C15.66 18.99 16.32 19.98 17 21 C11.70502537 18.75981843 7.03642585 14.89201943 4 10 C4 9.34 4 8.68 4 8 C3.34 8 2.68 8 2 8 C0.02 4.535 0.02 4.535 -2 1 C-1.34 0.67 -0.68 0.34 0 0 Z " fill="#E7A60F" transform="translate(93,158)"/>
<path d="M0 0 C4.95 0 9.9 0 15 0 C15 0.66 15 1.32 15 2 C15.515625 1.835 16.03125 1.67 16.5625 1.5 C19.73363876 0.84951 22.77218334 0.9379266 26 1 C26.33 1.99 26.66 2.98 27 4 C31.62 4 36.24 4 41 4 C41 4.66 41 5.32 41 6 C32.36076932 6.35449731 24.9038898 5.81175906 16.48828125 3.80078125 C11.04179622 2.55046834 5.53023137 1.78084662 0 1 C0 0.67 0 0.34 0 0 Z " fill="#D79F25" transform="translate(139,195)"/>
<path d="M0 0 C2.31 0.33 4.62 0.66 7 1 C7.33 2.32 7.66 3.64 8 5 C9.65 5 11.3 5 13 5 C13 5.99 13 6.98 13 8 C14.0828125 7.7215625 14.0828125 7.7215625 15.1875 7.4375 C18.12826973 6.98004693 20.14103058 7.26483643 23 8 C23 8.99 23 9.98 23 11 C23.66 11 24.32 11 25 11 C25 11.66 25 12.32 25 13 C25.99 13.33 26.98 13.66 28 14 C27.01 14.495 27.01 14.495 26 15 C3.74549918 7.49099836 3.74549918 7.49099836 0 0 Z " fill="#CE9C2D" transform="translate(111,180)"/>
<path d="M0 0 C1.66611905 -0.042721 3.33382885 -0.04063832 5 0 C6 1 6 1 6.11352539 4.05102539 C6.11336634 5.39991271 6.10767612 6.74880614 6.09765625 8.09765625 C6.0962413 8.80651474 6.09482635 9.51537323 6.09336853 10.24571228 C6.08775443 12.51801712 6.07519963 14.79022475 6.0625 17.0625 C6.05748681 18.59960796 6.05292359 20.13671745 6.04882812 21.67382812 C6.03778042 25.44925642 6.02050641 29.22461171 6 33 C5.01 33 4.02 33 3 33 C3.33 22.44 3.66 11.88 4 1 C2.68 0.67 1.36 0.34 0 0 Z " fill="#E3A31F" transform="translate(212,169)"/>
<path d="M0 0 C0.99 0.33 1.98 0.66 3 1 C4.44880144 5.34640432 4.66123344 9.46281306 4 14 C2.58524488 16.51786838 1.12310419 17.98305102 -1 20 C-1.33 18.68 -1.66 17.36 -2 16 C-1.01 16 -0.02 16 1 16 C1.33 14.02 1.66 12.04 2 10 C1.34 10 0.68 10 0 10 C0 9.34 0 8.68 0 8 C-0.99 8 -1.98 8 -3 8 C-2.5359375 7.13375 -2.5359375 7.13375 -2.0625 6.25 C-1.07416636 4.15705816 -0.4831387 2.25464725 0 0 Z " fill="#DE9C1D" transform="translate(244,182)"/>
<path d="M0 0 C0.66 0 1.32 0 2 0 C2.33 7.26 2.66 14.52 3 22 C-0.67543452 18.32456548 -0.42630738 16.99370437 -0.625 11.9375 C-0.65282567 7.3041921 -0.65282567 7.3041921 -2 3 C-1.34 2.67 -0.68 2.34 0 2 C0 1.34 0 0.68 0 0 Z " fill="#E9A40F" transform="translate(109,90)"/>
<path d="M0 0 C1.6256807 0.30893932 3.25052748 0.6222695 4.875 0.9375 C5.77992188 1.11152344 6.68484375 1.28554687 7.6171875 1.46484375 C10 2 10 2 12 3 C13.70363822 3.22622081 15.41328701 3.40888473 17.125 3.5625 C18.03507812 3.64628906 18.94515625 3.73007813 19.8828125 3.81640625 C20.58148438 3.87699219 21.28015625 3.93757812 22 4 C22 4.33 22 4.66 22 5 C19.77090129 5.02714735 17.54170633 5.04646254 15.3125 5.0625 C14.07113281 5.07410156 12.82976562 5.08570313 11.55078125 5.09765625 C8.53764546 5.01478673 5.91724661 4.70839449 3 4 C3 3.34 3 2.68 3 2 C2.01 1.67 1.02 1.34 0 1 C0 0.67 0 0.34 0 0 Z " fill="#D49F26" transform="translate(152,160)"/>
<path d="M0 0 C0.66 0.33 1.32 0.66 2 1 C1.34 1.66 0.68 2.32 0 3 C-0.64767793 5.57061311 -0.64767793 5.57061311 -1 8 C-3.31 8.66 -5.62 9.32 -8 10 C-7.44449305 6.40094092 -6.25112752 5.00090201 -3.4375 2.75 C-2.79683594 2.22921875 -2.15617187 1.7084375 -1.49609375 1.171875 C-1.00238281 0.78515625 -0.50867188 0.3984375 0 0 Z " fill="#DC9D21" transform="translate(87,104)"/>
<path d="M0 0 C4.71868132 1.49010989 4.71868132 1.49010989 6 3.8125 C6.33 4.534375 6.66 5.25625 7 6 C8.6454378 7.68762851 10.31288577 9.3540349 12 11 C13.02813611 12.31175986 14.04084432 13.6369893 15 15 C9.70502537 12.75981843 5.03642585 8.89201943 2 4 C2 3.34 2 2.68 2 2 C1.34 2 0.68 2 0 2 C0 1.34 0 0.68 0 0 Z " fill="#C99828" transform="translate(95,164)"/>
<path d="M0 0 C0.66 0.99 1.32 1.98 2 3 C0.92319498 4.13125022 -0.16175635 5.25474919 -1.25 6.375 C-1.85328125 7.00148438 -2.4565625 7.62796875 -3.078125 8.2734375 C-4.9700588 9.97310161 -6.68201309 10.98459866 -9 12 C-9.33 10.68 -9.66 9.36 -10 8 C-8.35 7.67 -6.7 7.34 -5 7 C-4.67 6.01 -4.34 5.02 -4 4 C-2.70644173 2.62804426 -1.37701298 1.28817344 0 0 Z " fill="#F2EDDF" transform="translate(88,92)"/>
<path d="M0 0 C0.99 0.99 1.98 1.98 3 3 C-0.96 2.67 -4.92 2.34 -9 2 C-9.33 2.99 -9.66 3.98 -10 5 C-12.0625 5.6875 -12.0625 5.6875 -14 6 C-13 3 -13 3 -10.9375 1.3125 C-6.91658327 -0.48407981 -4.3932629 -0.42515447 0 0 Z " fill="#C4942E" transform="translate(241,179)"/>
<path d="M0 0 C4.62 0 9.24 0 14 0 C12.68 0.33 11.36 0.66 10 1 C10 1.66 10 2.32 10 3 C8.375 3.6875 8.375 3.6875 6 4 C2.75 2.5625 2.75 2.5625 0 1 C0 0.67 0 0.34 0 0 Z " fill="#E7A50D" transform="translate(160,165)"/>
<path d="M0 0 C1.32 0.33 2.64 0.66 4 1 C3.07347299 2.17539996 2.13336613 3.34010577 1.1875 4.5 C0.66542969 5.1496875 0.14335938 5.799375 -0.39453125 6.46875 C-2 8 -2 8 -5 8 C-5 6.68 -5 5.36 -5 4 C-3.35 3.67 -1.7 3.34 0 3 C0 2.01 0 1.02 0 0 Z " fill="#F1EDE4" transform="translate(72,105)"/>
<path d="M0 0 C2.31 0.33 4.62 0.66 7 1 C7 1.99 7 2.98 7 4 C7.66 4 8.32 4 9 4 C9 4.66 9 5.32 9 6 C9.99 6.33 10.98 6.66 12 7 C11.01 7.495 11.01 7.495 10 8 C7.375 7.0625 7.375 7.0625 5 6 C5 5.01 5 4.02 5 3 C4.360625 2.87625 3.72125 2.7525 3.0625 2.625 C2.381875 2.41875 1.70125 2.2125 1 2 C0.67 1.34 0.34 0.68 0 0 Z " fill="#E0A31D" transform="translate(127,187)"/>
<path d="M0 0 C0.33 0 0.66 0 1 0 C1.04125 1.216875 1.0825 2.43375 1.125 3.6875 C1.42295211 6.27739145 1.65321586 7.61071307 3.40234375 9.57421875 C4.90675654 10.75297042 6.45149319 11.87980358 8 13 C8 13.66 8 14.32 8 15 C5.33070993 14.1342843 3.32258164 13.27808762 1.1875 11.4375 C-0.62592027 7.71521629 -0.23472483 4.06856367 0 0 Z " fill="#C19331" transform="translate(225,187)"/>
<path d="M0 0 C5.28 0.33 10.56 0.66 16 1 C16 1.33 16 1.66 16 2 C11.05 2.33 6.1 2.66 1 3 C0.67 2.01 0.34 1.02 0 0 Z " fill="#D59D33" transform="translate(175,165)"/>
<path d="M0 0 C0.66 0.99 1.32 1.98 2 3 C-1.63 2.67 -5.26 2.34 -9 2 C-7.02836683 -1.94326634 -3.64958638 -1.12294965 0 0 Z " fill="#E9A70B" transform="translate(156,194)"/>
<path d="M0 0 C-0.33 0.66 -0.66 1.32 -1 2 C-1.99 2.33 -2.98 2.66 -4 3 C-5.20882096 5.00016466 -5.20882096 5.00016466 -6 7 C-6 6.34 -6 5.68 -6 5 C-7.32 5.33 -8.64 5.66 -10 6 C-10 5.34 -10 4.68 -10 4 C-3.375 0 -3.375 0 0 0 Z " fill="#EBEBEB" transform="translate(134,8)"/>
<path d="M0 0 C0 0.66 0 1.32 0 2 C-3.3 2 -6.6 2 -10 2 C-9.67 1.34 -9.34 0.68 -9 0 C-5.65506316 -0.99444068 -3.31044803 -1.10348268 0 0 Z " fill="#E99D0F" transform="translate(191,200)"/>
<path d="M0 0 C2.31 0.33 4.62 0.66 7 1 C7.33 1.99 7.66 2.98 8 4 C5.125 3.6875 5.125 3.6875 2 3 C1.34 2.01 0.68 1.02 0 0 Z " fill="#DDA319" transform="translate(111,180)"/>
<path d="M0 0 C0.66 0 1.32 0 2 0 C2.33 1.65 2.66 3.3 3 5 C3.99 5 4.98 5 6 5 C6 6.32 6 7.64 6 9 C5.34 9 4.68 9 4 9 C0 3.70588235 0 3.70588235 0 0 Z " fill="#D49D25" transform="translate(86,149)"/>
<path d="M0 0 C-0.74324341 2.39489543 -1.47057354 3.70777616 -3.69140625 4.93359375 C-5.44073501 5.67219923 -7.21934149 6.34049685 -9 7 C-7.51191431 2.53574293 -4.79253508 0 0 0 Z " fill="#E7E7E7" transform="translate(56,74)"/>
<path d="M0 0 C2 2 2 2 2 5 C0.02 5.66 -1.96 6.32 -4 7 C-3.649375 6.38125 -3.29875 5.7625 -2.9375 5.125 C-2.628125 4.42375 -2.31875 3.7225 -2 3 C-2.33 2.34 -2.66 1.68 -3 1 C-2.01 0.67 -1.02 0.34 0 0 Z " fill="#ECECEC" transform="translate(155,35)"/>
<path d="M0 0 C0.99 0 1.98 0 3 0 C2.34 3.3 1.68 6.6 1 10 C0.67 10 0.34 10 0 10 C-0.19412181 8.52168779 -0.38012131 7.04230684 -0.5625 5.5625 C-0.66691406 4.73878906 -0.77132812 3.91507813 -0.87890625 3.06640625 C-0.91886719 2.38449219 -0.95882812 1.70257813 -1 1 C-0.67 0.67 -0.34 0.34 0 0 Z " fill="#D7A01D" transform="translate(226,185)"/>
<path d="M0 0 C1.65 0 3.3 0 5 0 C3.02 2.31 1.04 4.62 -1 7 C-1 4.37886292 -0.68707555 2.49064888 0 0 Z " fill="#EDF0E1" transform="translate(98,82)"/>
</svg>
